<?xml version="1.0" standalone="no"?><!DOCTYPE svg PUBLIC "-//W3C//DTD SVG 1.1//EN" "http://www.w3.org/Graphics/SVG/1.1/DTD/svg11.dtd"><svg t="1757332259385" class="icon" viewBox="0 0 1024 1024" version="1.1" xmlns="http://www.w3.org/2000/svg" p-id="137702" xmlns:xlink="http://www.w3.org/1999/xlink" width="200" height="200"><path d="M143.36 225.28H61.44v655.36c0 45.056 36.864 81.92 81.92 81.92h655.36v-81.92H143.36V225.28z m737.28-163.84H307.2c-45.056 0-81.92 36.864-81.92 81.92v573.44c0 45.056 36.864 81.92 81.92 81.92h573.44c45.056 0 81.92-36.864 81.92-81.92V143.36c0-45.056-36.864-81.92-81.92-81.92z m-81.92 409.6h-163.84v163.84h-81.92v-163.84h-163.84v-81.92h163.84v-163.84h81.92v163.84h163.84v81.92z" fill="#549DF2" p-id="137703"></path></svg>