<?xml version="1.0" standalone="no"?><!DOCTYPE svg PUBLIC "-//W3C//DTD SVG 1.1//EN" "http://www.w3.org/Graphics/SVG/1.1/DTD/svg11.dtd"><svg t="1759715890980" class="icon" viewBox="0 0 1024 1024" version="1.1" xmlns="http://www.w3.org/2000/svg" p-id="108040" xmlns:xlink="http://www.w3.org/1999/xlink" width="200" height="200"><path d="M1024 179.2c2.133333-4.266667 0-8.533333-6.4-8.533333-164.266667 34.133333-172.8-6.4-196.266667-44.8-2.133333-2.133333-4.266667-4.266667-6.4-2.133334-85.333333 29.866667-102.4 23.466667-108.8-44.8 0-4.266667-4.266667-6.4-8.533333-4.266666-32 14.933333-61.866667 29.866667-91.733333 46.933333-36.266667 19.2-49.066667 12.8-49.066667-27.733333 0-25.6 4.266667-53.333333 6.4-78.933334 0-4.266667-4.266667-8.533333-8.533333-4.266666-27.733333 19.2-57.6 38.4-89.6 57.6-27.733333 17.066667-57.6 25.6-85.333334 2.133333-2.133333-2.133333-6.4-2.133333-8.533333 0-40.533333 49.066667-51.2 49.066667-83.2 2.133333-2.133333-2.133333-6.4-4.266667-8.533333 0-14.933333 19.2-42.666667 68.266667-64 98.133334-21.333333 32-34.133333 34.133333-57.6 4.266666-2.133333-2.133333-8.533333-2.133333-8.533334 2.133334-4.266667 21.333333-8.533333 38.4-12.8 57.6-10.666667 51.2-21.333333 53.333333-64 23.466666h-4.266666c-2.133333 0-4.266667 2.133333-4.266667 6.4 2.133333 21.333333 4.266667 40.533333 4.266667 61.866667 2.133333 29.866667-2.133333 36.266667-29.866667 38.4-4.266667 0-6.4 4.266667-4.266667 6.4l12.8 76.8c0 4.266667-4.266667 8.533333-6.4 6.4-4.266667-2.133333-8.533333-2.133333-12.8-4.266667-4.266667-2.133333-8.533333 2.133333-6.4 6.4 12.8 36.266667 21.333333 68.266667 32 100.266667 85.333333 241.066667 40.533333 170.666667 309.333334 424.533333 2.133333 2.133333 4.266667 2.133333 6.4 0 2.133333 0 2.133333-2.133333 2.133333-4.266666v-14.933334c0-4.266667 4.266667-6.4 8.533333-4.266666 23.466667 14.933333 44.8 29.866667 66.133334 44.8 2.133333 2.133333 6.4 0 8.533333-2.133334 12.8-25.6 19.2-27.733333 46.933333-12.8 27.733333 14.933333 27.733333 19.2 55.466667 27.733334 4.266667 2.133333 8.533333-2.133333 6.4-6.4-8.533333-51.2 0-55.466667 51.2-46.933334 19.2 4.266667 38.4 10.666667 57.6 17.066667 2.133333 0 6.4 0 6.4-4.266667v-2.133333-4.266667l-4.266667-6.4c-19.2-25.6-14.933333-38.4 17.066667-46.933333 4.266667 0 125.866667-21.333333 130.133333-23.466667 4.266667 0 6.4-6.4 4.266667-8.533333-36.266667-42.666667-27.733333-55.466667 34.133333-74.666667 2.133333 0 4.266667-4.266667 4.266667-6.4-6.4-29.866667-4.266667-46.933333 23.466667-68.266666 32-25.6 68.266667-46.933333 102.4-68.266667 4.266667-2.133333 2.133333-8.533333-2.133334-10.666667-27.733333-8.533333-55.466667-14.933333-81.066666-27.733333-29.866667-12.8-32-29.866667-6.4-51.2 27.733333-23.466667 55.466667-44.8 83.2-70.4 2.133333-2.133333 2.133333-6.4 0-8.533333-2.133333-2.133333-4.266667-2.133333-4.266667-2.133334-44.8-19.2-51.2-44.8-21.333333-83.2 8.533333-10.666667 19.2-21.333333 32-34.133333 2.133333-2.133333 2.133333-6.4-2.133334-8.533333-72.533333-38.4 0-136.533333 36.266667-189.866667z" fill="#88C057" p-id="108041"></path><path d="M753.066667 341.333333c117.333333-72.533333 200.533333-121.6 200.533333-121.6-55.466667 17.066667-113.066667 40.533333-168.533333 66.133334-8.533333-34.133333-14.933333-81.066667 2.133333-110.933334-23.466667 29.866667-25.6 81.066667-21.333333 119.466667-32 14.933333-61.866667 29.866667-93.866667 46.933333-17.066667-76.8-8.533333-136.533333 12.8-198.4-29.866667 64-42.666667 130.133333-32 209.066667-42.666667 23.466667-85.333333 49.066667-125.866667 74.666667-44.8-102.4-44.8-198.4-17.066666-298.666667-36.266667 100.266667-42.666667 198.4-2.133334 309.333333-38.4 25.6-74.666667 49.066667-110.933333 76.8-53.333333-117.333333-46.933333-241.066667-19.2-364.8-38.4 128-46.933333 258.133333 0 377.6-27.733333 19.2-53.333333 40.533333-78.933333 59.733334-57.6-123.733333-57.6-249.6-32-381.866667-32 132.266667-38.4 264.533333 14.933333 396.8-25.6 21.333333-51.2 40.533333-74.666667 59.733333-57.6-104.533333-68.266667-211.2-59.733333-330.666666-17.066667 119.466667-10.666667 232.533333 42.666667 343.466666-72.533333 61.866667-134.4 117.333333-183.466667 162.133334-8.533333 8.533333-8.533333 23.466667 0 32 8.533333 8.533333 23.466667 8.533333 32 0 38.4-42.666667 87.466667-89.6 136.533333-130.133334 59.733333 87.466667 170.666667 155.733333 275.2 189.866667-98.133333-40.533333-204.8-113.066667-256-202.666667 17.066667-12.8 34.133333-27.733333 51.2-40.533333 81.066667 110.933333 194.133333 192 341.333334 213.333333-142.933333-29.866667-247.466667-113.066667-324.266667-228.266666 27.733333-21.333333 57.6-42.666667 87.466667-64 110.933333 98.133333 238.933333 157.866667 384 160-140.8-8.533333-260.266667-72.533333-364.8-172.8 34.133333-23.466667 70.4-49.066667 104.533333-72.533334 104.533333 81.066667 228.266667 138.666667 371.2 138.666667-134.4-6.4-247.466667-61.866667-352-151.466667 34.133333-23.466667 68.266667-44.8 100.266667-66.133333 89.6 49.066667 179.2 76.8 275.2 66.133333-91.733333 4.266667-177.066667-27.733333-256-78.933333 40.533333-25.6 78.933333-51.2 115.2-72.533333 49.066667 17.066667 128 36.266667 179.2 23.466666-44.8 4.266667-110.933333-19.2-153.6-38.4z" fill="#648C3E" p-id="108042"></path></svg>