<?xml version="1.0" standalone="no"?><!DOCTYPE svg PUBLIC "-//W3C//DTD SVG 1.1//EN" "http://www.w3.org/Graphics/SVG/1.1/DTD/svg11.dtd"><svg t="1759312580377" class="icon" viewBox="0 0 1024 1024" version="1.1" xmlns="http://www.w3.org/2000/svg" p-id="26196" xmlns:xlink="http://www.w3.org/1999/xlink" width="200" height="200"><path d="M201.216 859.648c-59.904 14.336-89.6 22.016-107.008 13.312-15.36-7.68-26.624-21.504-29.696-38.4-4.096-19.456 10.24-46.592 38.912-100.864l220.16-421.888c10.752-19.968 15.872-30.208 23.552-34.304 6.656-3.584 14.336-4.608 22.016-2.56 8.192 2.048 15.872 10.752 30.72 27.648C520.704 440.32 599.04 536.576 710.144 665.6c16.896 19.456 25.088 29.184 26.112 38.4 1.024 8.192-1.536 16.384-7.168 22.016-6.144 7.168-18.432 10.24-43.52 15.872l-484.352 117.76z" fill="#6466F4" p-id="26197"></path><path d="M238.08 474.624l308.224 301.056-144.896 35.328-275.456-120.832 112.128-215.552zM396.288 99.328l65.536 5.12-11.776 148.48-65.536-5.12 11.776-148.48z m519.68 515.584l6.656 65.536-157.696 16.896-7.168-65.536 158.208-16.896z" fill="#C7D2FF" p-id="26198"></path><path d="M924.672 138.24c8.192-1.024 14.336 6.656 12.288 14.336l-36.352 116.736c-1.024 2.56-0.512 5.632 0.512 8.192l53.76 109.568c3.584 7.168-1.536 15.872-9.728 15.872l-121.856 1.536c-3.072 0-5.632 1.024-7.68 3.072l-87.04 85.504c-5.632 5.632-15.36 3.072-17.92-4.096l-38.912-115.712c-1.024-2.56-2.56-5.12-5.12-6.144l-108.032-56.832c-7.168-3.584-8.192-13.824-1.536-18.432l97.792-73.216c2.048-1.536 3.584-4.096 4.096-7.168l20.48-120.32c1.536-7.68 10.752-11.776 16.896-7.168l99.328 70.656c2.048 1.536 5.12 2.56 7.68 2.048l121.344-18.432z" fill="#6466F4" p-id="26199"></path></svg>