<?xml version="1.0" standalone="no"?><!DOCTYPE svg PUBLIC "-//W3C//DTD SVG 1.1//EN" "http://www.w3.org/Graphics/SVG/1.1/DTD/svg11.dtd"><svg t="1759044655753" class="icon" viewBox="0 0 1509 1024" version="1.1" xmlns="http://www.w3.org/2000/svg" p-id="2408" xmlns:xlink="http://www.w3.org/1999/xlink" width="294.7265625" height="200"><path d="M1291.101636 489.364492C1415.382834 513.940479 1509.051837 623.131158 1509.051837 754.0953 1509.051837 903.168064 1387.680954 1024 1237.961454 1024H271.090384C121.316989 1024 0 903.168064 0 754.0953c0-94.639108 48.882501-177.852538 122.879935-226.034407a410.300416 410.300416 0 0 1-16.707359-116.250887C106.172576 184.374337 291.354794 0.000539 519.760569 0.000539a413.749677 413.749677 0 0 1 381.197273 251.688289c37.726296-19.186516 79.494695-29.103143 121.802041-29.103143 148.048764 0 268.126175 119.430674 268.341753 266.778807z" fill="#7BBAFF" p-id="2409"></path></svg>