<?xml version="1.0" standalone="no"?><!DOCTYPE svg PUBLIC "-//W3C//DTD SVG 1.1//EN" "http://www.w3.org/Graphics/SVG/1.1/DTD/svg11.dtd"><svg t="1758960438951" class="icon" viewBox="0 0 1024 1024" version="1.1" xmlns="http://www.w3.org/2000/svg" p-id="2657" xmlns:xlink="http://www.w3.org/1999/xlink" width="200" height="200"><path d="M511.976729 0.034909C229.232372 0.034909 0.034909 229.255643 0.034909 512s229.197463 511.965091 511.94182 511.965091c282.721086 0 511.918549-229.220734 511.918548-511.965091S794.697815 0.034909 511.976729 0.034909zM767.517123 691.094697a287.445127 287.445127 0 0 1-99.577211 86.940981 285.932503 285.932503 0 0 1-243.765196 10.239302 283.745016 283.745016 0 0 1-90.664364-61.133286 283.745016 283.745016 0 0 1-61.133286-90.664363 283.465762 283.465762 0 0 1-22.433379-111.073154c0-38.513738 7.53985-75.863918 22.433379-111.073154a284.117354 284.117354 0 0 1 61.133286-90.687634 284.512964 284.512964 0 0 1 201.737517-83.566666 282.837442 282.837442 0 0 1 162.781628 51.033611l0.721405-43.726473a34.673999 34.673999 0 1 1 69.324728 1.117015l-1.954776 120.916846-0.023271 0.791219a18.686726 18.686726 0 0 1-0.046542 1.140286c0 0.465423-0.046542 0.907574-0.093085 1.349726l-0.116355 1.000659-0.046543 0.442152-0.139627 0.930845a34.813626 34.813626 0 0 1-1.815149 6.702089l-0.442151 1.140286a1.140286 1.140286 0 0 1-0.069814 0.162898l-0.465422 1.02393-0.116356 0.232711-0.535236 1.047202a34.208577 34.208577 0 0 1-2.373657 3.956093l-0.744676 1.023931-0.907575 1.163557a23.364225 23.364225 0 0 1-2.117673 2.303843l-0.139627 0.162898-1.070473 1.02393-1.186828 1.02393a16.219985 16.219985 0 0 1-1.23337 0.977388 15.056428 15.056428 0 0 1-1.163557 0.861032c-0.581779 0.418881-1.210099 0.81449-1.838421 1.210099l-0.930845 0.535237a0.325796 0.325796 0 0 0-0.093085 0.069813l-1.070472 0.558507-0.698134 0.349067a5.957412 5.957412 0 0 1-0.558508 0.255983l-0.767947 0.349067a3.723382 3.723382 0 0 1-0.535237 0.232712l-0.884303 0.349067a20.734586 20.734586 0 0 1-2.65291 0.907574l-1.396268 0.372338-1.117015 0.255983-0.465423 0.116356-0.884303 0.139626-0.60505 0.116356-1.02393 0.139627-0.39561 0.046542-1.093743 0.116356-120.288525 10.704725a34.673999 34.673999 0 0 1-6.143581-69.068745l41.515714-3.700112a214.885711 214.885711 0 0 0-114.098402-32.509783 214.559915 214.559915 0 0 0-152.728495 63.25096 214.676271 214.676271 0 0 0-63.25096 152.728495c0 57.689157 22.479922 111.934186 63.25096 152.728495a214.676271 214.676271 0 0 0 152.728495 63.25096 213.210189 213.210189 0 0 0 100.3917-24.713951 217.72479 217.72479 0 0 0 75.468309-65.880599 34.673999 34.673999 0 1 1 56.409245 40.305615z m2.001318-311.99618z m-29.949958 26.994523a10.239302 10.239302 0 0 1-0.837761 0.093084l-0.255983 0.023271 1.093744-0.116355z" fill="#5CC7FF" p-id="2658"></path></svg>