<?xml version="1.0" standalone="no"?><!DOCTYPE svg PUBLIC "-//W3C//DTD SVG 1.1//EN" "http://www.w3.org/Graphics/SVG/1.1/DTD/svg11.dtd"><svg t="1758510987267" class="icon" viewBox="0 0 1024 1024" version="1.1" xmlns="http://www.w3.org/2000/svg" p-id="3628" xmlns:xlink="http://www.w3.org/1999/xlink" width="200" height="200"><path d="M512 512m-512 0a512 512 0 1 0 1024 0 512 512 0 1 0-1024 0Z" fill="#759FF8" p-id="3629"></path><path d="M718.563556 352.096711c12.765867 14.290489 12.822756 37.455644 0.136533 51.825778L479.3344 671.9488c-12.845511 14.290489-33.564444 14.290489-46.421333 0L304.64 528.236089c-12.060444-14.483911-11.696356-37.0688 0.8192-51.052089 12.515556-13.994667 32.676978-14.370133 45.590756-0.853333l105.0624 117.646222 216.177777-241.959822c12.845511-14.279111 33.518933-14.222222 46.2848 0.079644z" fill="#FFFFFF" p-id="3630"></path></svg>