<?xml version="1.0" standalone="no"?><!DOCTYPE svg PUBLIC "-//W3C//DTD SVG 1.1//EN" "http://www.w3.org/Graphics/SVG/1.1/DTD/svg11.dtd"><svg t="1757329523889" class="icon" viewBox="0 0 1024 1024" version="1.1" xmlns="http://www.w3.org/2000/svg" p-id="26995" xmlns:xlink="http://www.w3.org/1999/xlink" width="200" height="200"><path d="M349.091 0h512c51.413 0 93.091 41.678 93.091 93.091v651.636c0 51.413-41.678 93.091-93.091 93.091h-512c-51.413 0-93.091-41.678-93.091-93.091V93.091C256 41.678 297.678 0 349.091 0z" fill="#84A4FF" fill-opacity=".6" p-id="26996"></path><path d="M162.909 139.636h558.545c51.413 0 93.091 41.678 93.091 93.091v698.182c0 51.413-41.678 93.091-93.091 93.091H162.909c-51.413 0-93.091-41.678-93.091-93.091V232.727c0-51.412 41.678-93.091 93.091-93.091z" fill="#84A4FF" p-id="26997"></path><path d="M232.727 372.364h232.727c12.853 0 23.273 10.42 23.273 23.273s-10.42 23.273-23.273 23.273H232.727c-12.853 0-23.273-10.42-23.273-23.273 0.001-12.854 10.42-23.273 23.273-23.273zM232.727 558.545h418.909c12.853 0 23.273 10.42 23.273 23.273s-10.42 23.273-23.273 23.273H232.727c-12.853 0-23.273-10.42-23.273-23.273 0.001-12.853 10.42-23.273 23.273-23.273zM232.727 744.727h418.909c12.853 0 23.273 10.42 23.273 23.273s-10.42 23.273-23.273 23.273H232.727c-12.853 0-23.273-10.42-23.273-23.273 0.001-12.853 10.42-23.273 23.273-23.273z" fill="#FFFFFF" p-id="26998"></path></svg>