<?xml version="1.0" standalone="no"?><!DOCTYPE svg PUBLIC "-//W3C//DTD SVG 1.1//EN" "http://www.w3.org/Graphics/SVG/1.1/DTD/svg11.dtd"><svg t="1757329409182" class="icon" viewBox="0 0 1024 1024" version="1.1" xmlns="http://www.w3.org/2000/svg" p-id="17523" xmlns:xlink="http://www.w3.org/1999/xlink" width="200" height="200"><path d="M742.058667 0l4.027733 14.7456a409.6 409.6 0 0 1 8.533333 172.305067c-20.2752 123.4944-53.248 224.8704-99.054933 304.196266-19.592533 33.9968-41.5744 66.56-65.877333 97.826134l53.179733 101.717333a170.666667 170.666667 0 1 1-60.689067 48.9472l16.042667 12.970667c-30.72-24.1664-59.528533-49.5616-86.2208-76.049067-19.729067 19.524267-40.5504 38.5024-62.532267 56.866133l-7.5776 6.144a170.666667 170.666667 0 1 1-60.757333-48.878933l53.179733-101.717333a860.433067 860.433067 0 0 1-65.877333-97.826134C322.696533 411.921067 289.655467 310.613333 269.380267 187.050667A409.6 409.6 0 0 1 277.9136 14.7456L281.941333 0 512 440.388267 742.058667 0zM218.589867 793.3952a102.4 102.4 0 1 0 177.3568 102.4 102.4 102.4 0 0 0-177.3568-102.4z m409.6 0a102.4 102.4 0 1 0 177.3568 102.4 102.4 102.4 0 0 0-177.3568-102.4zM511.7952 530.2272l-5.802667 0.477867a34.065067 34.065067 0 0 0 6.144 67.7888l5.870934-0.546134a34.065067 34.065067 0 0 0-6.144-67.720533z" fill="#A8AAB0" p-id="17524"></path></svg>