<?xml version="1.0" standalone="no"?><!DOCTYPE svg PUBLIC "-//W3C//DTD SVG 1.1//EN" "http://www.w3.org/Graphics/SVG/1.1/DTD/svg11.dtd"><svg t="1759321487076" class="icon" viewBox="0 0 1024 1024" version="1.1" xmlns="http://www.w3.org/2000/svg" p-id="86129" xmlns:xlink="http://www.w3.org/1999/xlink" width="200" height="200"><path d="M509.343772 5.312456c-281.305472 0-509.343772 228.0383-509.343772 509.343772s228.0383 509.343772 509.343772 509.343772 509.343772-228.0383 509.343772-509.343772-228.0383-509.343772-509.343772-509.343772z m306.609671 329.260188l-396.18796 396.177773c-5.093438 5.093438-11.801495 7.538288-18.473899 7.416045a25.344946 25.344946 0 0 1-18.473898-7.416045l-180.078491-180.073398a25.467189 25.467189 0 0 1 0-36.015698 25.467189 25.467189 0 0 1 36.015698 0l162.536691 162.536691 378.641067-378.641066a25.472282 25.472282 0 0 1 36.020792 36.015698z" fill="#3DBE51" p-id="86130"></path></svg>