<?xml version="1.0" standalone="no"?><!DOCTYPE svg PUBLIC "-//W3C//DTD SVG 1.1//EN" "http://www.w3.org/Graphics/SVG/1.1/DTD/svg11.dtd"><svg t="1756804013307" class="icon" viewBox="0 0 1024 1024" version="1.1" xmlns="http://www.w3.org/2000/svg" p-id="17944" xmlns:xlink="http://www.w3.org/1999/xlink" width="200" height="200"><path d="M517.603556 273.493333L230.200889 499.285333a16.156444 16.156444 0 0 0 0 25.400889l287.402667 225.820445a16.298667 16.298667 0 0 0 26.396444-12.714667V286.208a16.298667 16.298667 0 0 0-26.396444-12.714667z m320 0l-287.402667 225.792a16.156444 16.156444 0 0 0 0 25.400889l287.402667 225.820445a16.298667 16.298667 0 0 0 26.396444-12.714667V286.208a16.298667 16.298667 0 0 0-26.396444-12.714667zM217.6 248.035556h-51.2c-3.498667 0-6.4 2.702222-6.4 5.973333V769.991111c0 3.299556 2.901333 6.001778 6.4 6.001778h51.2c3.498667 0 6.4-2.702222 6.4-5.973333V254.008889c0-3.299556-2.901333-6.001778-6.4-6.001778z" fill="#000000" fill-opacity=".65" p-id="17945"></path></svg>