<?xml version="1.0" standalone="no"?><!DOCTYPE svg PUBLIC "-//W3C//DTD SVG 1.1//EN" "http://www.w3.org/Graphics/SVG/1.1/DTD/svg11.dtd"><svg t="1757330800225" class="icon" viewBox="0 0 1024 1024" version="1.1" xmlns="http://www.w3.org/2000/svg" p-id="96686" xmlns:xlink="http://www.w3.org/1999/xlink" width="200" height="200"><path d="M488.533333 983.466667c6.4-91.733333 38.4-326.4 168.533334-584.533334h-49.066667c-128 262.4-157.866667 492.8-164.266667 584.533334h44.8z" fill="#415A6B" p-id="96687"></path><path d="M872.533333 317.866667c23.466667 46.933333 29.866667 87.466667 8.533334 106.666666-19.2 19.2-59.733333 14.933333-106.666667-8.533333-17.066667 51.2-40.533333 81.066667-68.266667 81.066667s-51.2-32-68.266666-81.066667c-46.933333 23.466667-87.466667 27.733333-106.666667 8.533333-19.2-19.2-14.933333-59.733333 8.533333-106.666666-51.2-17.066667-83.2-40.533333-83.2-68.266667 0-27.733333 32-51.2 81.066667-68.266667-23.466667-46.933333-27.733333-87.466667-8.533333-106.666666 19.2-19.2 59.733333-14.933333 106.666666 8.533333 17.066667-51.2 42.666667-81.066667 68.266667-81.066667s51.2 32 68.266667 83.2c46.933333-23.466667 87.466667-29.866667 106.666666-8.533333s14.933333 59.733333-8.533333 106.666667c51.2 17.066667 81.066667 42.666667 81.066667 68.266666 4.266667 23.466667-27.733333 49.066667-78.933334 66.133334z" fill="#FFD15C" p-id="96688"></path><path d="M706.133333 247.466667m-98.133333 0a98.133333 98.133333 0 1 0 196.266667 0 98.133333 98.133333 0 1 0-196.266667 0Z" fill="#F7B64C" p-id="96689"></path><path d="M706.133333 247.466667m-51.2 0a51.2 51.2 0 1 0 102.4 0 51.2 51.2 0 1 0-102.4 0Z" fill="#F3705A" p-id="96690"></path><path d="M482.133333 983.466667c-6.4-76.8-29.866667-253.866667-125.866666-452.266667h-46.933334c98.133333 196.266667 123.733333 375.466667 130.133334 452.266667h42.666666z" fill="#415A6B" p-id="96691"></path><path d="M134.4 454.4c-19.2 38.4-23.466667 70.4-8.533333 85.333333 14.933333 14.933333 46.933333 10.666667 85.333333-8.533333 12.8 40.533333 34.133333 66.133333 55.466667 66.133333s42.666667-25.6 55.466666-66.133333c38.4 19.2 70.4 23.466667 85.333334 8.533333 14.933333-14.933333 10.666667-46.933333-8.533334-85.333333 40.533333-12.8 66.133333-34.133333 66.133334-55.466667s-25.6-42.666667-66.133334-55.466666c19.2-38.4 23.466667-70.4 6.4-85.333334-14.933333-14.933333-46.933333-10.666667-85.333333 6.4-14.933333-40.533333-34.133333-66.133333-55.466667-66.133333s-42.666667 25.6-55.466666 66.133333c-38.4-19.2-70.4-23.466667-85.333334-8.533333s-10.666667 46.933333 8.533334 85.333333c-40.533333 12.8-66.133333 34.133333-66.133334 55.466667 2.133333 23.466667 27.733333 42.666667 68.266667 57.6z" fill="#FFD15C" p-id="96692"></path><path d="M268.8 398.933333m-78.933333 0a78.933333 78.933333 0 1 0 157.866666 0 78.933333 78.933333 0 1 0-157.866666 0Z" fill="#F7B64C" p-id="96693"></path><path d="M268.8 398.933333m-40.533333 0a40.533333 40.533333 0 1 0 81.066666 0 40.533333 40.533333 0 1 0-81.066666 0Z" fill="#F3705A" p-id="96694"></path><path d="M456.533333 919.466667c-38.4-81.066667-44.8-172.8-8.533333-256-46.933333 81.066667-55.466667 172.8-36.266667 256h44.8z" fill="#66C6B9" p-id="96695"></path><path d="M332.8 1024c8.533333-89.6-19.2-177.066667-81.066667-243.2 72.533333 59.733333 113.066667 142.933333 123.733334 226.133333l-42.666667 17.066667z" fill="#66C6B9" p-id="96696"></path><path d="M326.4 1024H448c-19.2-130.133333-85.333333-262.4-196.266667-381.866667 74.666667 119.466667 100.266667 249.6 74.666667 381.866667z" fill="#4EC0AA" p-id="96697"></path><path d="M499.2 1024c-44.8-153.6 4.266667-313.6 128-401.066667-151.466667 85.333333-226.133333 249.6-198.4 401.066667h70.4z" fill="#4EC0AA" p-id="96698"></path><path d="M548.266667 1024c-10.666667-155.733333 68.266667-298.666667 202.666666-360.533333-166.4 55.466667-273.066667 204.8-273.066666 360.533333h70.4z" fill="#66C6B9" p-id="96699"></path><path d="M586.666667 1024c-10.666667-123.733333 23.466667-238.933333 155.733333-285.866667-164.266667 42.666667-268.8 162.133333-268.8 285.866667h113.066667z" fill="#4EC0AA" p-id="96700"></path></svg>