<?xml version="1.0" standalone="no"?><!DOCTYPE svg PUBLIC "-//W3C//DTD SVG 1.1//EN" "http://www.w3.org/Graphics/SVG/1.1/DTD/svg11.dtd"><svg t="1756960587875" class="icon" viewBox="0 0 1024 1024" version="1.1" xmlns="http://www.w3.org/2000/svg" p-id="8564" xmlns:xlink="http://www.w3.org/1999/xlink" width="200" height="200"><path d="M195.9936 704.4096A479.488 479.488 0 0 1 51.2 507.392C120.9856 330.24 293.2736 204.8 495.0016 204.8a475.136 475.136 0 0 1 169.5232 31.0272l-87.296 87.3472a201.7792 201.7792 0 0 0-266.496 266.496l-114.7392 114.688z m139.1616 78.08l86.9376-86.9376a201.8304 201.8304 0 0 0 261.0688-261.0688l118.1184-118.1696a479.5392 479.5392 0 0 1 137.5232 191.0784c-69.7856 177.152-241.8688 302.592-443.8016 302.592a475.136 475.136 0 0 1-159.8464-27.4944z m177.5616-394.8544L375.296 525.1072a121.1392 121.1392 0 0 1 137.472-137.472zM615.936 501.76l0.1024 5.6832a121.1392 121.1392 0 0 1-126.72 120.9344l126.6176-126.6176z m160.1024-268.544a25.6 25.6 0 0 1 0 36.1984L232.96 812.3904a25.6 25.6 0 0 1-36.1984-36.1984L739.84 233.1648a25.6 25.6 0 0 1 36.1984 0z" fill="#7178DC" p-id="8565"></path></svg>