<?xml version="1.0" standalone="no"?><!DOCTYPE svg PUBLIC "-//W3C//DTD SVG 1.1//EN" "http://www.w3.org/Graphics/SVG/1.1/DTD/svg11.dtd"><svg t="1757235489032" class="icon" viewBox="0 0 1024 1024" version="1.1" xmlns="http://www.w3.org/2000/svg" p-id="25368" xmlns:xlink="http://www.w3.org/1999/xlink" width="200" height="200"><path d="M166.39968 51.200384v921.599232h767.99936V358.400128H703.999232a50.986624 50.986624 0 0 1-51.199957-51.199957v-255.999787z m537.599552 21.333316v234.666471H934.39904v-4.266663zM166.39968 0.000427h516.266236a51.41329 51.41329 0 0 1 36.266637 15.146654L970.452343 266.666871a51.41329 51.41329 0 0 1 15.146654 36.266637v669.866108A50.986624 50.986624 0 0 1 934.39904 1023.999573H166.39968a50.986624 50.986624 0 0 1-51.199957-51.199957V51.200384A50.986624 50.986624 0 0 1 166.39968 0.000427z" fill="#EBEBEB" p-id="25369"></path><path d="M38.399787 486.400021h742.399381v332.799723H38.399787z" fill="#666666" p-id="25370"></path><path d="M292.692908 566.613288V682.666524a66.346611 66.346611 0 0 1-12.373323 43.94663 56.533286 56.533286 0 0 1-43.733297 15.146655 51.626624 51.626624 0 0 1-39.466634-14.506655 55.679954 55.679954 0 0 1-13.866655-39.8933V682.666524h28.37331v5.333329c0 19.839983 8.319993 29.653309 25.599979 29.653309a24.746646 24.746646 0 0 0 21.333315-8.319993 44.58663 44.58663 0 0 0 6.399995-26.879978v-115.839903zM398.079487 566.613288c41.386632 0 62.506615 17.706652 62.506615 52.906622s-21.333316 53.333289-63.999947 53.333289h-42.666631v66.133279h-27.306644v-172.37319z m-42.666631 82.133265h40.959966a46.506628 46.506628 0 0 0 26.026645-6.826661 26.453311 26.453311 0 0 0 9.599992-23.253314 25.173312 25.173312 0 0 0-9.599992-21.333316 42.666631 42.666631 0 0 0-27.306644-6.826661h-40.319967zM612.052642 577.919945a63.999947 63.999947 0 0 1 23.039981 42.666631h-28.37331a39.039967 39.039967 0 0 0-15.57332-23.253314 54.186622 54.186622 0 0 0-31.573307-8.10666 47.573294 47.573294 0 0 0-38.399968 16.426653 71.039941 71.039941 0 0 0-15.359988 48.853293 70.826608 70.826608 0 0 0 13.653322 46.933294 58.239951 58.239951 0 0 0 46.506628 17.279986 89.813258 89.813258 0 0 0 23.039981-2.773331 85.333262 85.333262 0 0 0 18.559985-7.893327v-36.693303h-45.439962v-24.106646H635.732622v72.959939a100.05325 100.05325 0 0 1-31.359974 16.426653 142.506548 142.506548 0 0 1-42.666631 5.759995 80.639933 80.639933 0 0 1-63.999946-26.026645 91.94659 91.94659 0 0 1-21.333316-62.933281 93.866588 93.866588 0 0 1 21.333316-63.999947 74.879938 74.879938 0 0 1 60.799949-26.666644 85.333262 85.333262 0 0 1 53.546622 15.146654z" fill="#FFFFFF" p-id="25371"></path></svg>