<?xml version="1.0" standalone="no"?><!DOCTYPE svg PUBLIC "-//W3C//DTD SVG 1.1//EN" "http://www.w3.org/Graphics/SVG/1.1/DTD/svg11.dtd"><svg t="1756803801718" class="icon" viewBox="0 0 1793 1024" version="1.1" xmlns="http://www.w3.org/2000/svg" p-id="41750" xmlns:xlink="http://www.w3.org/1999/xlink" width="350.1953125" height="200"><path d="M1404.928 480.64a32.768 32.768 0 1 0 0 65.536 32.768 32.768 0 0 0 0-65.536zM1306.88 28.16H485.12c-267.52 0-485.248 217.6-485.248 485.12 0 267.776 217.856 485.376 485.12 485.376h822.016c267.648 0 485.248-217.6 485.248-485.248 0-267.52-217.6-485.12-485.12-485.12zM642.944 576.256h-96.384v96.384a62.72 62.72 0 1 1-125.568 0v-96.384h-96.384a62.72 62.72 0 1 1 0-125.696h96.384v-96.384a62.72 62.72 0 1 1 125.568 0v96.384h96.384a62.72 62.72 0 1 1 0 125.696z m399.616 77.568A140.544 140.544 0 0 1 902.016 513.28c0-77.44 63.104-140.416 140.416-140.416 77.44 0 140.416 62.976 140.416 140.416s-62.976 140.416-140.416 140.416z m362.496 0A140.544 140.544 0 0 1 1264.512 513.28c0-77.44 62.976-140.416 140.416-140.416 77.312 0 140.288 62.976 140.288 140.416s-62.976 140.416-140.288 140.416zM1042.304 480.64a32.768 32.768 0 1 0 0 65.536 32.768 32.768 0 0 0 0-65.536z" fill="#343852" p-id="41751"></path></svg>