<?xml version="1.0" standalone="no"?><!DOCTYPE svg PUBLIC "-//W3C//DTD SVG 1.1//EN" "http://www.w3.org/Graphics/SVG/1.1/DTD/svg11.dtd"><svg t="1759213304490" class="icon" viewBox="0 0 1024 1024" version="1.1" xmlns="http://www.w3.org/2000/svg" p-id="42990" xmlns:xlink="http://www.w3.org/1999/xlink" width="200" height="200"><path d="M756.352 128C833.472 128 896 190.528 896 267.648v488.704A139.648 139.648 0 0 1 756.352 896H267.648A139.648 139.648 0 0 1 128 756.352V267.648C128 190.528 190.528 128 267.648 128h488.704zM512.192 302.528h-0.32l-0.448 0.064h-0.832l-0.832 0.064h-0.448l-0.768 0.128h-0.576l-0.64 0.128-0.64 0.128-0.448 0.128-0.896 0.192a26.048 26.048 0 0 0-12.096 6.72L380.032 420.864a25.536 25.536 0 0 0 0 36.544 26.88 26.88 0 0 0 37.312 0l68.096-66.624v304.832a26.24 26.24 0 0 0 26.368 25.856 26.24 26.24 0 0 0 26.432-25.856V390.464l68.416 66.944a26.88 26.88 0 0 0 37.312 0 25.536 25.536 0 0 0 0-36.48L530.816 310.016a26.56 26.56 0 0 0-18.624-7.552z" fill="#FF8F49" p-id="42991"></path></svg>