<?xml version="1.0" standalone="no"?><!DOCTYPE svg PUBLIC "-//W3C//DTD SVG 1.1//EN" "http://www.w3.org/Graphics/SVG/1.1/DTD/svg11.dtd"><svg t="1759213327243" class="icon" viewBox="0 0 1024 1024" version="1.1" xmlns="http://www.w3.org/2000/svg" p-id="44794" xmlns:xlink="http://www.w3.org/1999/xlink" width="200" height="200"><path d="M756.352 896A139.648 139.648 0 0 0 896 756.352V267.648A139.648 139.648 0 0 0 756.352 128H267.648A139.648 139.648 0 0 0 128 267.648v488.704C128 833.472 190.528 896 267.648 896h488.704z m-244.16-174.528h-0.32l-0.448-0.064h-0.832l-0.832-0.064h-0.448l-0.768-0.128h-0.576l-0.64-0.128-0.64-0.128-0.448-0.128-0.896-0.192a26.048 26.048 0 0 1-12.096-6.72L380.032 603.136a25.536 25.536 0 0 1 0-36.544 26.88 26.88 0 0 1 37.312 0l68.096 66.624V328.384a26.24 26.24 0 0 1 26.368-25.856 26.24 26.24 0 0 1 26.432 25.856v305.152l68.416-66.944a26.88 26.88 0 0 1 37.312 0c10.24 10.112 10.24 26.432 0 36.48l-113.152 110.848a26.56 26.56 0 0 1-18.624 7.552z" fill="#FF8F49" p-id="44795"></path></svg>