<?xml version="1.0" standalone="no"?><!DOCTYPE svg PUBLIC "-//W3C//DTD SVG 1.1//EN" "http://www.w3.org/Graphics/SVG/1.1/DTD/svg11.dtd"><svg t="1757329281600" class="icon" viewBox="0 0 1024 1024" version="1.1" xmlns="http://www.w3.org/2000/svg" p-id="6107" xmlns:xlink="http://www.w3.org/1999/xlink" width="200" height="200"><path d="M143.36 396.288l-61.44 225.792V188.928c0-22.528 17.92-40.448 40.448-40.448h192c10.752 0 20.992 4.608 28.672 11.776l82.944 82.944c1.536 1.536 3.584 2.048 5.632 2.048h289.28c22.528 0 40.448 17.92 40.448 40.448v56.32h-547.84c-33.28 1.024-61.952 22.528-70.144 54.272z m697.856-5.12c-7.68-10.24-19.456-15.872-31.744-15.872H213.504c-18.432 0-34.304 12.288-38.912 29.696l-83.456 307.2c-3.584 12.288-1.024 25.088 7.168 34.816 7.68 10.24 19.456 15.872 31.744 15.872h595.968c18.432 0 34.304-12.288 38.912-29.696l83.456-307.2c3.072-12.288 1.024-25.088-7.168-34.816z" fill="#5DBAED" p-id="6108"></path><path d="M747.52 670.72m-199.68 0a199.68 199.68 0 1 0 399.36 0 199.68 199.68 0 1 0-399.36 0Z" fill="#48D882" p-id="6109"></path><path d="M859.136 644.096h-84.48v-84.48c0-14.848-11.776-26.624-26.624-26.624-14.848 0-26.624 11.776-26.624 26.624v84.48h-84.48c-14.848 0-26.624 11.776-26.624 26.624 0 14.848 11.776 26.624 26.624 26.624h84.48v84.48c0 14.848 11.776 26.624 26.624 26.624 14.848 0 26.624-11.776 26.624-26.624v-84.48h84.48c14.848 0 26.624-11.776 26.624-26.624 0-14.848-11.776-26.624-26.624-26.624z" fill="#FFFFFF" p-id="6110"></path></svg>