<?xml version="1.0" standalone="no"?><!DOCTYPE svg PUBLIC "-//W3C//DTD SVG 1.1//EN" "http://www.w3.org/Graphics/SVG/1.1/DTD/svg11.dtd"><svg t="1759321500767" class="icon" viewBox="0 0 1024 1024" version="1.1" xmlns="http://www.w3.org/2000/svg" p-id="87974" xmlns:xlink="http://www.w3.org/1999/xlink" width="200" height="200"><path d="M512 0a512 512 0 1 0 0.064 1024.064A512 512 0 0 0 512 0z m189.056 706.56l-75.456-0.384L512 570.752l-113.472 135.296-75.52 0.32a9.088 9.088 0 0 1-9.152-9.088c0-2.176 0.768-4.224 2.176-5.952L464.64 514.176 315.968 337.152a9.152 9.152 0 0 1 6.976-15.104l75.52 0.32L512 457.856l113.472-135.36 75.456-0.32c4.992 0 9.152 3.968 9.152 9.152a9.536 9.536 0 0 1-2.176 5.952L559.36 514.304l148.608 177.152a9.152 9.152 0 0 1-6.976 15.104z" fill="#FF5959" p-id="87975"></path></svg>