<?xml version="1.0" standalone="no"?><!DOCTYPE svg PUBLIC "-//W3C//DTD SVG 1.1//EN" "http://www.w3.org/Graphics/SVG/1.1/DTD/svg11.dtd"><svg t="1757331796453" class="icon" viewBox="0 0 1024 1024" version="1.1" xmlns="http://www.w3.org/2000/svg" p-id="128565" xmlns:xlink="http://www.w3.org/1999/xlink" width="200" height="200"><path d="M556.8 224v710.4c0 32-25.6 57.6-57.6 57.6s-57.6-25.6-57.6-57.6v-710.4c0-32 25.6-57.6 57.6-57.6s57.6 25.6 57.6 57.6z" fill="#5DCB95" p-id="128566"></path><path d="M19.2 953.6c0-25.6 25.6-51.2 57.6-51.2h838.4c32 0 57.6 25.6 57.6 51.2 0 12.8-6.4 25.6-19.2 38.4-12.8 12.8-25.6 12.8-38.4 12.8h-838.4c-12.8 0-32-6.4-38.4-12.8s-19.2-25.6-19.2-38.4zM19.2 665.6c0-25.6 25.6-51.2 57.6-51.2h198.4c32 0 57.6 19.2 57.6 51.2 0 12.8-6.4 25.6-19.2 32-12.8 6.4-25.6 12.8-38.4 12.8h-198.4c-12.8 0-32-6.4-38.4-12.8s-19.2-19.2-19.2-32zM659.2 665.6c0-25.6 25.6-51.2 57.6-51.2h198.4c32 0 57.6 19.2 57.6 51.2 0 12.8-6.4 25.6-19.2 32-12.8 6.4-25.6 12.8-38.4 12.8h-198.4c-12.8 0-32-6.4-38.4-12.8s-19.2-19.2-19.2-32zM499.2 32l332.8 332.8c12.8 12.8 12.8 32 0 44.8-6.4 6.4-12.8 6.4-25.6 6.4h-620.8c-19.2 0-32-12.8-32-32 0-6.4 6.4-19.2 6.4-25.6l339.2-326.4z" fill="#5DCB95" p-id="128567"></path></svg>