<?xml version="1.0" standalone="no"?><!DOCTYPE svg PUBLIC "-//W3C//DTD SVG 1.1//EN" "http://www.w3.org/Graphics/SVG/1.1/DTD/svg11.dtd"><svg t="1759387388381" class="icon" viewBox="0 0 1024 1024" version="1.1" xmlns="http://www.w3.org/2000/svg" p-id="96463" xmlns:xlink="http://www.w3.org/1999/xlink" width="200" height="200"><path d="M511.970883 0C282.823623 0 97.060024 166.357417 97.060024 404.589041c0 86.490716 36.672297 172.981433 82.356166 247.184965h40.064375l104.819586 186.112997h43.674827l-104.819585-186.112997h225.653274v186.112997h43.674827V651.774006H759.461571l-106.144388 186.112997h43.674827L803.136399 651.774006h43.165287c44.737581-74.247206 80.638289-160.694248 80.63829-247.184965C926.881742 166.357417 741.118144 0 511.970883 0z" fill="#2674FD" p-id="96464"></path><path d="M621.157952 651.774006h92.445051C846.811226 331.31724 768.327561 69.210043 536.181296 0.917171 529.877563 0 521.331855 0 509.059228 0c184.890102 170.797691 160.039125 455.586681 112.098724 651.774006z" fill="#FFE41F" p-id="96465"></path><path d="M408.985641 651.774006C367.130598 450.651426 344.667178 158.117433 510.034633 0c-12.199835 0-20.745543 0-27.049277 0.917171C250.839091 69.210043 172.355427 331.31724 305.505417 651.774006zM622.730245 1024H401.691945a116.466206 116.466206 0 0 1-116.466206-116.466206v-88.805482a29.116552 29.116552 0 0 1 29.116551-29.116552h395.73761a29.116552 29.116552 0 0 1 29.116551 29.116552v88.805482a116.466206 116.466206 0 0 1-116.466206 116.466206z" fill="#FFE41F" p-id="96466"></path><path d="M622.730245 1024H401.691945a116.466206 116.466206 0 0 1-116.466206-116.466206v-69.646791h453.970712v69.646791a116.466206 116.466206 0 0 1-116.466206 116.466206z" fill="#2674FD" p-id="96467"></path></svg>