<?xml version="1.0" standalone="no"?><!DOCTYPE svg PUBLIC "-//W3C//DTD SVG 1.1//EN" "http://www.w3.org/Graphics/SVG/1.1/DTD/svg11.dtd"><svg t="1759210165302" class="icon" viewBox="0 0 1024 1024" version="1.1" xmlns="http://www.w3.org/2000/svg" p-id="14519" xmlns:xlink="http://www.w3.org/1999/xlink" width="200" height="200"><path d="M832 364.8s36.8 169.6-56 345.6v1.6c-24 62.4-51.2 104-76.8 132.8-27.2 40-51.2 67.2-78.4 81.6 20.8-3.2 35.2-6.4 52.8-6.4 83.2-30.4 174.4-92.8 235.2-204.8 91.2-176-76.8-350.4-76.8-350.4z" fill="#9ECEAF" p-id="14520"></path><path d="M548.8 932.8c9.6 0 20.8 0 30.4-1.6 16-1.6 28.8-3.2 40-6.4 27.2-14.4 51.2-41.6 78.4-81.6-60.8 67.2-115.2 60.8-115.2 60.8C748.8 843.2 836.8 448 836.8 448c-14.4 113.6-36.8 198.4-60.8 262.4v-1.6c94.4-176 56-345.6 56-345.6s4.8 62.4-76.8 144c-28.8 30.4-65.6 97.6-100.8 169.6-12.8 80-43.2 156.8-89.6 209.6-6.4 22.4-11.2 38.4-16 46.4z" fill="#7FB290" p-id="14521"></path><path d="M582.4 904s54.4 6.4 115.2-60.8c25.6-28.8 52.8-70.4 76.8-132.8 25.6-64 46.4-148.8 60.8-262.4 1.6 0-86.4 395.2-252.8 456z" fill="#FFFFFF" p-id="14522"></path><path d="M272 571.2c-1.6-3.2-1.6-6.4-3.2-9.6-11.2-17.6-17.6-22.4-11.2-19.2 3.2 1.6 6.4 8 11.2 19.2 27.2 40 83.2 142.4 64 332.8 1.6 14.4 4.8 24 6.4 32 12.8-6.4 27.2-9.6 38.4-11.2 19.2-67.2 44.8-193.6 12.8-310.4-81.6-96-238.4-169.6-275.2-185.6 6.4 1.6 12.8 6.4 17.6 12.8 35.2 24 96 70.4 139.2 139.2zM110.4 416c1.6 1.6 1.6 1.6 3.2 1.6-1.6 0-3.2 0-3.2-1.6zM110.4 416c-3.2 0-3.2-1.6 0 0z" fill="#85B6C0" p-id="14523"></path><path d="M115.2 419.2s0-1.6 0 0c-3.2-1.6-3.2-1.6-4.8-1.6-14.4-4.8-1.6 0 20.8 16-3.2-8-9.6-12.8-16-14.4zM104 675.2c-4.8 0-6.4 1.6-6.4 1.6l6.4-1.6zM334.4 894.4c0 3.2 0 6.4-1.6 9.6 0 0-33.6-248-60.8-332.8-43.2-68.8-104-115.2-139.2-139.2 46.4 54.4 64 220.8 64 220.8l-92.8 20.8c17.6-3.2 67.2-3.2 84.8 75.2 17.6 76.8 104 152 140.8 180.8 3.2-1.6 8-3.2 11.2-4.8-3.2-6.4-4.8-16-6.4-30.4z" fill="#74A6AA" p-id="14524"></path><path d="M268.8 561.6c1.6 3.2 1.6 6.4 3.2 9.6 25.6 86.4 60.8 332.8 60.8 332.8 0-3.2 0-6.4 1.6-9.6 19.2-188.8-38.4-292.8-65.6-332.8zM259.2 542.4c-8-4.8-1.6 1.6 11.2 19.2-4.8-11.2-8-17.6-11.2-19.2z" fill="#FFFFFF" p-id="14525"></path><path d="M580.8 931.2c-9.6 1.6-20.8 1.6-30.4 1.6-9.6 0-20.8 0-30.4-1.6-43.2 28.8-96 41.6-156.8 30.4 0 0 8-19.2 16-48-11.2 1.6-24 6.4-38.4 11.2-3.2 1.6-8 3.2-11.2 4.8-36.8 17.6-73.6 43.2-73.6 43.2s-11.2 4.8-8 24c3.2 19.2 46.4-8 94.4-3.2 48 4.8 54.4 3.2 168-16 113.6-16 113.6-17.6 203.2-1.6s121.6-20.8 32-44.8c-35.2-9.6-56-12.8-73.6-12.8-17.6 0-32 3.2-52.8 6.4-9.6 3.2-22.4 4.8-38.4 6.4z" fill="#817B7D" p-id="14526"></path><path d="M504 414.4c35.2 80 68.8 227.2 59.2 348.8 1.6 78.4-20.8 118.4-41.6 137.6-32 44.8-81.6 70.4-158.4 60.8 60.8 11.2 113.6-1.6 156.8-30.4 17.6-11.2 33.6-25.6 46.4-41.6 46.4-54.4 76.8-129.6 89.6-209.6 17.6-112 0-232-57.6-308.8-140.8-192-52.8-336-52.8-336s-137.6 161.6-41.6 379.2z" fill="#E4E8B1" p-id="14527"></path><path d="M377.6 913.6c-8 30.4-16 48-16 48 76.8 9.6 128-16 158.4-60.8-19.2 17.6-36.8 20.8-36.8 20.8 49.6-41.6 52.8-206.4-22.4-422.4C376 254.4 484.8 96 484.8 96c-25.6 198.4-44.8 209.6 28.8 428.8 35.2 105.6 48 182.4 49.6 238.4 9.6-121.6-24-268.8-59.2-348.8-96-217.6 41.6-380.8 41.6-380.8C294.4 107.2 390.4 464 390.4 464h-81.6c41.6 40 67.2 89.6 81.6 140.8 33.6 115.2 6.4 241.6-12.8 308.8z" fill="#B2B280" p-id="14528"></path><path d="M563.2 764.8c0-57.6-14.4-134.4-49.6-238.4-73.6-220.8-52.8-232-28.8-430.4 0 0-108.8 158.4-24 404.8 75.2 216 72 379.2 22.4 422.4 0 0 17.6-3.2 36.8-20.8 22.4-20.8 44.8-60.8 43.2-137.6z" fill="#FFFFFF" p-id="14529"></path></svg>