<?xml version="1.0" standalone="no"?><!DOCTYPE svg PUBLIC "-//W3C//DTD SVG 1.1//EN" "http://www.w3.org/Graphics/SVG/1.1/DTD/svg11.dtd"><svg t="1756806268219" class="icon" viewBox="0 0 1024 1024" version="1.1" xmlns="http://www.w3.org/2000/svg" p-id="2552" xmlns:xlink="http://www.w3.org/1999/xlink" width="200" height="200"><path d="M983.04 911.36l-199.68-199.68c53.76-69.12 87.04-156.16 87.04-250.88 0-225.28-184.32-409.6-409.6-409.6S51.2 235.52 51.2 460.8s184.32 409.6 409.6 409.6c94.72 0 181.76-33.28 250.88-87.04l199.68 199.68c10.24 10.24 23.04 15.36 35.84 15.36s25.6-5.12 35.84-15.36c20.48-20.48 20.48-51.2 0-71.68zM153.6 460.8c0-168.96 138.24-307.2 307.2-307.2s307.2 138.24 307.2 307.2-138.24 307.2-307.2 307.2S153.6 629.76 153.6 460.8z" fill="#6D71F9" p-id="2553"></path></svg>