<?xml version="1.0" standalone="no"?><!DOCTYPE svg PUBLIC "-//W3C//DTD SVG 1.1//EN" "http://www.w3.org/Graphics/SVG/1.1/DTD/svg11.dtd"><svg t="1756960571382" class="icon" viewBox="0 0 1024 1024" version="1.1" xmlns="http://www.w3.org/2000/svg" p-id="7561" xmlns:xlink="http://www.w3.org/1999/xlink" width="200" height="200"><path d="M639.7 369.7z" fill="#7366F6" p-id="7562"></path><path d="M597.7 231.9c-0.5-0.1-1-0.1-1.5-0.2-2.3-0.3-4.5-0.7-6.8-1-1.1-0.2-2.2-0.3-3.4-0.4-1.8-0.2-3.5-0.5-5.3-0.7-1.8-0.2-3.7-0.4-5.5-0.6-1.1-0.1-2.3-0.3-3.4-0.4-9.2-1-18.5-1.7-27.8-2.2-3.6-0.2-7.2-0.3-10.8-0.5H532c-2.9-0.1-5.7-0.2-8.6-0.2h-1.2c-3.1-0.1-6.2-0.1-9.4-0.1h-0.2-7.1c-1.3 0-2.6 0-3.9 0.1-0.8 0-1.5 0-2.3 0.1-42.2 1-83 6.5-121.5 16.2l0.2 0.2c-74.7 18.8-141.9 52.7-196.8 97.7-55.8 47-96.1 106.2-114.6 172.1 45.9 164 227.6 286.5 444.8 286.5h1c46.7 0 91.8-5.7 134.3-16.2l-0.2-0.2c69.8-17.4 132.4-48 183.4-88.2l0.5 0.5c62.2-48.8 107.2-111.7 126.9-182.4C917.7 370 776 259.1 597.7 231.9z m-177.4 52.4c27.6-5.4 56.2-8.4 85.7-8.8h6c181.5 0.2 334.1 99.8 378.5 234.9C846.7 643.5 698 742.2 520 745.2c-2.4 0-4.7 0.1-7.1 0.1h-0.3c-181.7 0-334.5-99.7-378.9-234.9 17.8-54.1 52.9-102.4 100.2-141l-0.5-0.5c50.5-41 114.7-70.9 186.8-84.8l0.1 0.2z" fill="#CFCAFD" p-id="7563"></path><path d="M639.6 368.6c7.7 10.5 12.2 23.5 12.2 37.5 0 35.4-28.7 64-64 64s-64-28.6-64-64 28.7-64 64-64c6.6 0 12.9 1 18.9 2.8-28-15.8-60.3-24.9-94.7-24.9-106 0-192 86-192 192s86 192 192 192 192-86 192-192c0-57-24.9-108.3-64.4-143.4z" fill="#7366F6" p-id="7564"></path></svg>