<?xml version="1.0" standalone="no"?><!DOCTYPE svg PUBLIC "-//W3C//DTD SVG 1.1//EN" "http://www.w3.org/Graphics/SVG/1.1/DTD/svg11.dtd"><svg t="1756979057717" class="icon" viewBox="0 0 1024 1024" version="1.1" xmlns="http://www.w3.org/2000/svg" p-id="21034" xmlns:xlink="http://www.w3.org/1999/xlink" width="200" height="200"><path d="M825.291437 348.94446C820.776889 152.892691 684.317153 0 511.440063 0 338.623168 0 202.163431 152.892691 197.58869 348.94446c0 71.630828-31.842612 128.995684-68.199772 205.502223-59.170675 114.729712-40.931901 262.867079-9.089289 262.867079 18.17858 0 54.535739-23.897007 86.37835-66.935698 13.664032 47.794014 40.931901 90.892899 77.349255 129.055878-50.021191 14.326166-81.863803 43.03869-81.863803 71.691021 0 43.03869 72.774513 76.446345 159.213058 71.691022 68.199771-4.755324 122.795704-28.652331 145.549026-57.304662h18.17858c22.753322 28.652331 77.349255 52.549338 145.549026 57.304662 86.438545 4.815518 159.213058-28.652331 159.213058-71.630828 0-28.712525-31.902806-57.42505-81.863803-71.751215 36.35716-33.407655 59.110481-76.446345 77.289061-124.24036 27.328064 42.978497 63.685223 66.875504 86.438545 66.875504 22.753322-4.755324 40.931901-152.892691-18.17858-267.622403-40.931901-76.446345-68.259965-133.811201-68.259965-205.502223z" fill="#55B6E8" p-id="21035"></path></svg>