<?xml version="1.0" standalone="no"?><!DOCTYPE svg PUBLIC "-//W3C//DTD SVG 1.1//EN" "http://www.w3.org/Graphics/SVG/1.1/DTD/svg11.dtd"><svg t="1757329750092" class="icon" viewBox="0 0 1024 1024" version="1.1" xmlns="http://www.w3.org/2000/svg" p-id="38669" xmlns:xlink="http://www.w3.org/1999/xlink" width="200" height="200"><path d="M574.709333 816.042667V69.973333A21.589333 21.589333 0 0 1 596.64 48.042667h52.053333a21.845333 21.845333 0 0 1 22.186667 21.845333v530.432c0 12.032 9.728 21.845333 21.76 21.845333H788.64a21.845333 21.845333 0 0 1 17.749333 33.792l-192 264.021334a21.589333 21.589333 0 0 1-39.253333-12.714667l-0.341333-91.221333z" fill="#666666" p-id="38670"></path><path d="M447.562667 207.957333v746.154667a21.845333 21.845333 0 0 1-21.845334 21.845333h-51.370666a21.589333 21.589333 0 0 1-21.845334-21.845333V423.68a21.845333 21.845333 0 0 0-21.845333-21.845333H234.656a21.845333 21.845333 0 0 1-18.944-33.792l192-264.021334a21.845333 21.845333 0 0 1 39.594667 12.714667l0.256 91.221333z" fill="#DC7E37" p-id="38671"></path></svg>