<?xml version="1.0" standalone="no"?><!DOCTYPE svg PUBLIC "-//W3C//DTD SVG 1.1//EN" "http://www.w3.org/Graphics/SVG/1.1/DTD/svg11.dtd"><svg t="1757331524116" class="icon" viewBox="0 0 1024 1024" version="1.1" xmlns="http://www.w3.org/2000/svg" p-id="118877" xmlns:xlink="http://www.w3.org/1999/xlink" width="200" height="200"><path d="M111.8208 26.0096h800.3584c38.161067 0 57.207467 19.114667 57.207467 57.207467 0 38.0928-19.114667 57.1392-57.207467 57.1392H111.8208C73.659733 140.356267 54.613333 121.309867 54.613333 83.285333 54.613333 45.056 73.728 25.941333 111.8208 25.941333zM111.8208 311.9104h800.3584c38.161067 0 57.207467 19.0464 57.207467 57.1392 0 38.161067-19.114667 57.207467-57.207467 57.207467H111.8208c-38.161067 0-57.207467-19.114667-57.207467-57.207467 0-38.0928 19.114667-57.1392 57.207467-57.1392zM111.8208 597.742933h800.3584c38.161067 0 57.207467 19.114667 57.207467 57.207467 0 38.0928-19.114667 57.1392-57.207467 57.1392H111.8208c-38.161067 0-57.207467-19.0464-57.207467-57.1392 0-38.161067 19.114667-57.207467 57.207467-57.207467zM111.8208 883.643733h800.3584c38.161067 0 57.207467 19.0464 57.207467 57.1392 0 38.0928-19.114667 57.207467-57.207467 57.207467H111.8208c-38.161067 0-57.207467-19.114667-57.207467-57.207467 0-38.0928 19.114667-57.1392 57.207467-57.1392z" fill="#4A4951" p-id="118878"></path></svg>