<?xml version="1.0" standalone="no"?><!DOCTYPE svg PUBLIC "-//W3C//DTD SVG 1.1//EN" "http://www.w3.org/Graphics/SVG/1.1/DTD/svg11.dtd"><svg t="1757417397688" class="icon" viewBox="0 0 1024 1024" version="1.1" xmlns="http://www.w3.org/2000/svg" p-id="9135" xmlns:xlink="http://www.w3.org/1999/xlink" width="200" height="200"><path d="M889.766957 994.726957H135.123478c-48.973913 0-91.269565-40.069565-91.269565-89.043479v-629.982608c0-48.973913 40.069565-89.043478 91.269565-89.043479h754.643479c48.973913 0 91.269565 40.069565 91.269565 89.043479v629.982608c-2.226087 48.973913-42.295652 89.043478-91.269565 89.043479z" fill="#577BFF" p-id="9136"></path><path d="M718.358261 622.970435h-411.826087c-33.391304 0-60.104348-28.93913-57.878261-62.330435v-467.478261c0-33.391304 24.486957-62.330435 57.878261-62.330435h411.826087c33.391304 0 60.104348 28.93913 57.878261 62.330435v467.478261c2.226087 33.391304-24.486957 60.104348-57.878261 62.330435z" fill="#AEC7FF" p-id="9137"></path><path d="M215.262609 462.692174h607.721739v218.156522H215.262609v-218.156522z" fill="#577BFF" p-id="9138"></path><path d="M644.897391 184.431304c-11.130435-11.130435-31.165217-11.130435-44.521739 0l-102.4 102.4-44.521739-44.521739c-11.130435-11.130435-31.165217-11.130435-44.521739 0s-11.130435 31.165217 0 44.521739l66.782609 66.782609c11.130435 11.130435 31.165217 11.130435 44.521739 0l124.660869-124.66087c11.130435-11.130435 11.130435-31.165217 0-44.521739z" fill="#FFFFFF" p-id="9139"></path></svg>