<?xml version="1.0" standalone="no"?><!DOCTYPE svg PUBLIC "-//W3C//DTD SVG 1.1//EN" "http://www.w3.org/Graphics/SVG/1.1/DTD/svg11.dtd"><svg t="1759312507527" class="icon" viewBox="0 0 1024 1024" version="1.1" xmlns="http://www.w3.org/2000/svg" p-id="14829" xmlns:xlink="http://www.w3.org/1999/xlink" width="200" height="200"><path d="M34.133 512c0 263.68 214.187 477.867 477.867 477.867S989.867 775.68 989.867 512 775.68 34.133 512 34.133 34.133 248.32 34.133 512z" fill="#FFD629" p-id="14830"></path><path d="M923.307 268.8c-1.707-0.853 42.666 77.653 56.32 146.773 52.906 258.56-113.494 511.147-372.054 564.054-43.52 8.533-86.186 11.093-128 8.533-71.68-5.12-140.8-25.6-202.24-60.587 0 0.854 397.654-306.346 645.974-658.773z" fill="#FF9A2C" opacity=".1" p-id="14831"></path><path d="M965.973 366.08c84.48 246.613-59.733 519.68-300.373 599.04-41.813 13.653-123.733 32.427-210.773 22.187 0-0.854 189.44-17.92 356.693-217.6C989.013 558.08 963.413 358.4 965.973 366.08z" fill="#FF9A2C" opacity=".2" p-id="14832"></path><path d="M814.933 139.093C768 99.84 708.267 71.68 637.44 51.2 529.067 19.627 410.453 30.72 295.253 87.04c-158.72 76.8-273.92 279.893-259.413 455.68 5.12 58.88 11.093 116.053 34.133 165.547 0.854 0.853 1.707 1.706 3.414 1.706 23.893-7.68 249.173-83.626 428.373-216.746 242.347-180.907 331.947-337.92 313.173-354.134z" fill="#FCE99A" opacity=".24" p-id="14833"></path><path d="M965.973 366.08c84.48 246.613-59.733 519.68-300.373 599.04-41.813 13.653-123.733 32.427-210.773 22.187 0-0.854 139.946-52.054 313.173-246.614C951.467 534.187 963.413 358.4 965.973 366.08z" fill="#FF9A2C" opacity=".19" p-id="14834"></path><path d="M965.973 366.08c84.48 246.613-59.733 519.68-300.373 599.04-41.813 13.653-123.733 32.427-210.773 22.187 0-0.854 102.4-96.427 275.626-290.987 183.467-206.507 232.96-337.92 235.52-330.24z" fill="#FEC54A" opacity=".15" p-id="14835"></path><path d="M406.187 430.08c0-41.813-34.134-75.947-75.947-75.947s-75.947 34.134-75.947 75.947 34.134 75.947 75.947 75.947 75.947-34.134 75.947-75.947z m287.573-75.947c-41.813 0-75.947 34.134-75.947 75.947s34.134 75.947 75.947 75.947 75.947-34.134 75.947-75.947-34.134-75.947-75.947-75.947z m-166.4 261.974h-1.707c-64.853 0-124.586 33.28-159.573 87.893-10.24 16.213-5.12 37.547 10.24 46.933 5.973 3.414 11.947 5.12 18.773 5.12 11.094 0 22.187-5.973 29.014-15.36 22.186-34.986 60.586-56.32 103.253-56.32 41.813 0 80.213 21.334 102.4 56.32 9.387 13.654 26.453 18.774 40.96 13.654v0.853l6.827-4.267c7.68-5.12 12.8-12.8 14.506-21.333 1.707-9.387 0-17.92-4.266-25.6-35.84-54.613-95.574-87.893-160.427-87.893z" fill="#675827" p-id="14836"></path></svg>