<?xml version="1.0" standalone="no"?><!DOCTYPE svg PUBLIC "-//W3C//DTD SVG 1.1//EN" "http://www.w3.org/Graphics/SVG/1.1/DTD/svg11.dtd"><svg t="1756967740387" class="icon" viewBox="0 0 1024 1024" version="1.1" xmlns="http://www.w3.org/2000/svg" p-id="6268" xmlns:xlink="http://www.w3.org/1999/xlink" width="200" height="200"><path d="M507.856647 24.860116c267.936802 0 485.364162 217.42736 485.364162 485.364161s-217.42736 485.364162-485.364162 485.364162-485.364162-217.42736-485.364161-485.364162 217.42736-485.364162 485.364161-485.364161m0-5.919076c-131.008863 0-254.520231 50.904046-347.252408 144.030829-92.732177 92.732177-144.030829 216.243545-144.030829 347.252408s50.904046 254.520231 144.030829 347.252409c92.732177 92.732177 216.243545 144.030829 347.252408 144.030828s254.520231-50.904046 347.252409-144.030828c92.732177-92.732177 144.030829-216.243545 144.030828-347.252409s-50.904046-254.520231-144.030828-347.252408c-92.732177-92.732177-215.84894-144.030829-347.252409-144.030829z" fill="#EFA118" p-id="6269"></path><path d="M507.856647 76.158767c239.919846 0 434.065511 194.145665 434.065511 434.06551s-194.145665 434.065511-434.065511 434.065511-434.065511-194.145665-434.06551-434.065511 194.54027-434.065511 434.06551-434.06551m0-39.460501c-126.668208 0-245.444316 49.325626-335.019653 138.506358C83.656262 264.779961 34.330636 383.950674 34.330636 510.224277s49.325626 245.444316 138.506358 335.019654c89.575337 89.575337 208.351445 138.506358 335.019653 138.506358s245.444316-49.325626 335.019654-138.506358c89.575337-89.575337 138.506358-208.351445 138.506358-335.019654s-49.325626-245.444316-138.506358-335.019653c-89.575337-89.180732-208.351445-138.506358-335.019654-138.506358z" fill="#EFA118" p-id="6270"></path><path d="M196.101257 370.203279a98.651252 102.597303 79.997 1 0 202.075372-35.64225 98.651252 102.597303 79.997 1 0-202.075372 35.64225Z" fill="#DD912C" p-id="6271"></path><path d="M202.037765 316.867823c-6.708285 16.57341-9.075915 34.725241-5.919075 53.666281 7.8921 45.379576 46.957996 77.737187 92.337572 80.894027 9.075915-29.989981 1.57842-66.293642-22.492486-95.494412-17.757225-21.703276-40.644316-34.725241-63.926011-39.065896z" fill="#F7C628" p-id="6272"></path><path d="M295.953757 459.320231c-52.087861 0-98.256647-35.909056-107.332562-87.602312-5.129865-28.016956 1.57842-56.428516 18.94104-80.104817 16.968015-23.281696 42.222736-39.065896 71.028902-44.195761 59.979961-10.654335 117.197688 28.016956 127.457418 85.629287 5.129865 28.016956-1.57842 56.428516-18.941041 80.104817-16.968015 23.281696-42.617341 39.065896-71.423506 44.195761-6.708285 1.183815-13.41657 1.973025-19.730251 1.973025z m2.762235-197.69711c-5.52447 0-11.443545 0.394605-17.36262 1.57842-24.860116 4.340655-46.957996 17.757225-61.558382 37.882081-14.600385 20.124855-20.124855 44.195761-16.178805 67.872062 8.68131 49.325626 57.612331 82.077842 108.910983 73.001927 24.860116-4.340655 46.957996-17.757225 61.558381-37.882081 14.600385-20.124855 20.124855-44.195761 16.178806-67.872062C382.766859 292.402312 343.306358 261.623121 298.715992 261.623121z" fill="#4F1800" p-id="6273"></path><path d="M686.406346 449.682654a102.597303 98.651252 9.997 1 0 34.251046-194.30683 102.597303 98.651252 9.997 1 0-34.251046 194.30683Z" fill="#DD912C" p-id="6274"></path><path d="M804.599615 370.139499c3.15684-18.546435 0.78921-36.303661-5.52447-52.877071-22.097881 5.129865-43.406551 18.15183-59.979962 37.882081-24.070906 28.806166-31.568401 65.504432-22.492486 95.099807 43.406551-4.340655 80.499422-35.909056 87.996918-80.104817z" fill="#F7C628" p-id="6275"></path><path d="M705.159152 459.320231c-6.708285 0-13.41657-0.394605-19.73025-1.57842-29.200771-5.129865-54.455491-20.914066-71.423507-44.195761-16.968015-23.281696-23.676301-51.693256-18.94104-80.104817 10.25973-58.006936 67.477457-96.283622 127.457418-85.629287 29.200771 5.129865 54.455491 20.914066 71.423506 44.195761 16.968015 23.281696 23.676301 51.693256 18.941041 80.104817-9.47052 50.904046-55.639306 87.207707-107.727168 87.207707z m-2.762235-197.69711c-44.590366 0-84.050867 30.779191-91.942967 74.580347-4.340655 23.676301 1.57842 47.747206 16.178805 67.872062 14.600385 20.124855 36.303661 33.541426 61.558382 37.882081 51.298651 9.075915 100.229672-23.676301 108.910982-73.001927 4.340655-23.676301-1.57842-47.747206-16.178805-67.872062-14.600385-20.124855-36.303661-33.541426-61.558381-37.882081-5.52447-1.183815-11.443545-1.57842-16.968016-1.57842z" fill="#4F1800" p-id="6276"></path><path d="M766.717534 553.630829c0 121.932948-117.592293 181.518304-262.412332 181.518304s-262.412331-59.585356-262.412331-181.518304 100.624277-240.709056 262.412331-240.709056 262.412331 118.776108 262.412332 240.709056z" fill="#FFD05C" p-id="6277"></path><path d="M504.305202 743.041233c-76.553372 0-142.057803-15.7842-189.805009-46.168786-52.877071-33.541426-80.499422-82.867052-80.499422-143.241618 0-63.136802 26.438536-125.878998 73.001926-171.65318 50.114836-49.720231 120.354528-76.947977 197.302505-76.947977 77.342582 0 147.187669 27.227746 197.302505 76.947977 46.168786 45.774181 73.001927 108.516378 73.001927 171.65318 0 60.374566-28.016956 109.700193-80.499422 143.241618-47.747206 30.384586-113.251638 46.168786-189.80501 46.168786z m0-422.22736c-125.089788 0-254.520231 87.207707-254.520231 232.816956 0 84.050867 66.688247 173.626204 254.520231 173.626204s254.520231-89.575337 254.520232-173.626204c0-145.609249-129.430443-232.816956-254.520232-232.816956z" fill="#4F1800" p-id="6278"></path><path d="M391.842775 541.792678m-27.622351 0a27.622351 27.622351 0 1 0 55.244701 0 27.622351 27.622351 0 1 0-55.244701 0Z" fill="#4F1800" p-id="6279"></path><path d="M628.60578 541.792678m-27.62235 0a27.622351 27.622351 0 1 0 55.244701 0 27.622351 27.622351 0 1 0-55.244701 0Z" fill="#4F1800" p-id="6280"></path><path d="M599.010405 606.5079c0 38.671291-16.178805 60.769171-88.786128 60.769171s-88.786127-22.097881-88.786127-60.769171 39.855106-79.315607 88.786127-79.315607 88.786127 40.644316 88.786128 79.315607z" fill="#FFFFFF" p-id="6281"></path><path d="M510.224277 585.199229m-21.703275 0a21.703276 21.703276 0 1 0 43.406551 0 21.703276 21.703276 0 1 0-43.406551 0Z" fill="#4F1800" p-id="6282"></path><path d="M488.521002 624.65973c-1.57842 0-2.762235-0.394605-3.94605-1.57842-2.36763-2.36763-2.762235-5.919075-0.394605-8.286705l21.703275-23.676301c2.36763-2.36763 6.31368-2.36763 8.681311 0l21.703275 23.676301c2.36763 2.36763 1.973025 6.31368-0.394605 8.286705-2.36763 2.36763-6.31368 1.973025-8.286705-0.394605l-17.362621-18.94104-17.36262 18.94104c-1.183815 1.57842-2.762235 1.973025-4.340655 1.973025z" fill="#4F1800" p-id="6283"></path><path d="M498.386127 739.095183c0 19.73025-55.244701 43.406551-84.840077 43.406551s-53.271676-19.335645-53.271676-43.406551 23.676301-43.406551 53.271676-43.406551 84.840077 23.676301 84.840077 43.406551z" fill="#FF2727" p-id="6284"></path><path d="M413.54605 790.393834c-33.541426 0-61.163776-22.887091-61.163776-51.298651s27.622351-51.298651 61.163776-51.298651c29.595376 0 92.732177 24.465511 92.732177 51.298651s-62.742197 51.298651-92.732177 51.298651z m0-86.813102c-24.860116 0-45.379576 15.7842-45.379576 35.514451s20.519461 35.514451 45.379576 35.514451c25.254721 0 76.947977-22.097881 76.947977-35.514451s-51.693256-35.514451-76.947977-35.514451z" fill="#4F1800" p-id="6285"></path><path d="M514.170328 739.095183c0 19.73025 55.244701 43.406551 84.840077 43.406551s53.271676-19.335645 53.271676-43.406551-23.676301-43.406551-53.271676-43.406551-84.840077 23.676301-84.840077 43.406551z" fill="#FF2727" p-id="6286"></path><path d="M599.010405 790.393834c-29.595376 0-92.732177-24.465511-92.732178-51.298651s63.136802-51.298651 92.732178-51.298651c33.541426 0 61.163776 22.887091 61.163776 51.298651s-27.227746 51.298651-61.163776 51.298651z m0-86.813102c-25.254721 0-76.947977 22.097881-76.947977 35.514451s51.693256 35.514451 76.947977 35.514451c24.860116 0 45.379576-15.7842 45.379576-35.514451s-20.124855-35.514451-45.379576-35.514451z" fill="#4F1800" p-id="6287"></path><path d="M507.856647 743.041233m-35.51445 0a35.514451 35.514451 0 1 0 71.028901 0 35.514451 35.514451 0 1 0-71.028901 0Z" fill="#FFD05C" p-id="6288"></path><path d="M507.856647 784.474759c-22.887091 0-41.433526-18.546435-41.433526-41.433526s18.546435-41.433526 41.433526-41.433526 41.433526 18.546435 41.433526 41.433526-18.546435 41.433526-41.433526 41.433526z m0-71.028902c-16.178805 0-29.595376 13.41657-29.595375 29.595376s13.41657 29.595376 29.595375 29.595376 29.595376-13.41657 29.595376-29.595376-13.021965-29.595376-29.595376-29.595376z" fill="#4F1800" p-id="6289"></path><path d="M293.191522 707.526782m-69.055877 0a69.055877 69.055877 0 1 0 138.111754 0 69.055877 69.055877 0 1 0-138.111754 0Z" fill="#FFD05C" p-id="6290"></path><path d="M293.191522 782.501734c-41.433526 0-74.974952-33.541426-74.974952-74.974952s33.541426-74.974952 74.974952-74.974952 74.974952 33.541426 74.974952 74.974952-33.541426 74.974952-74.974952 74.974952z m0-138.111753c-34.725241 0-63.136802 28.411561-63.136801 63.136801s28.411561 63.136802 63.136801 63.136802 63.136802-28.411561 63.136802-63.136802-28.411561-63.136802-63.136802-63.136801z" fill="#4F1800" p-id="6291"></path><path d="M727.257033 707.526782m-69.055877 0a69.055877 69.055877 0 1 0 138.111753 0 69.055877 69.055877 0 1 0-138.111753 0Z" fill="#FFD05C" p-id="6292"></path><path d="M727.257033 782.501734c-41.433526 0-74.974952-33.541426-74.974952-74.974952s33.541426-74.974952 74.974952-74.974952 74.974952 33.541426 74.974952 74.974952-33.541426 74.974952-74.974952 74.974952z m0-138.111753c-34.725241 0-63.136802 28.411561-63.136802 63.136801s28.411561 63.136802 63.136802 63.136802 63.136802-28.411561 63.136801-63.136802-28.411561-63.136802-63.136801-63.136801z" fill="#4F1800" p-id="6293"></path></svg>