<?xml version="1.0" standalone="no"?><!DOCTYPE svg PUBLIC "-//W3C//DTD SVG 1.1//EN" "http://www.w3.org/Graphics/SVG/1.1/DTD/svg11.dtd"><svg t="1756803514091" class="icon" viewBox="0 0 1024 1024" version="1.1" xmlns="http://www.w3.org/2000/svg" p-id="22464" xmlns:xlink="http://www.w3.org/1999/xlink" width="200" height="200"><path d="M877.714286 774.290286L981.138286 877.714286A73.142857 73.142857 0 0 1 877.714286 981.138286L774.290286 877.714286A73.142857 73.142857 0 0 1 877.714286 774.290286zM438.857143 0a438.857143 438.857143 0 1 1 0 877.714286A438.857143 438.857143 0 0 1 438.857143 0z m0 219.428571a73.142857 73.142857 0 0 0-72.630857 64.585143L365.714286 292.571429v73.142857H292.571429a73.142857 73.142857 0 0 0-8.557715 145.773714L292.571429 512h73.142857v73.142857a73.142857 73.142857 0 0 0 145.773714 8.557714L512 585.142857V512h73.142857a73.142857 73.142857 0 0 0 8.557714-145.773714L585.142857 365.714286H512V292.571429a73.142857 73.142857 0 0 0-73.142857-73.142858z" fill="#7C8295" p-id="22465"></path></svg>